Coordinates
nRows=17
nColumns=24

# SIMM Motion File Header:
name Coordinates
datacolumns 24
datarows 17
otherdata 1
range 0.85799999999999998000 0.87400000000000000000
endheader
time	pelvis_tx	pelvis_ty	pelvis_tz	pelvis_tilt	pelvis_list	pelvis_rotation	hip_flexion_r	hip_adduction_r	hip_rotation_r	knee_angle_r	ankle_angle_r	subtalar_angle_r	mtp_angle_r	hip_flexion_l	hip_adduction_l	hip_rotation_l	knee_angle_l	ankle_angle_l	subtalar_angle_l	mtp_angle_l	lumbar_extension	lumbar_bending	lumbar_rotation
      0.85799999999999998000	      1.64983124715886100000	      0.93176954500926334000	     -0.31617033138858541000	     -3.19634862713385240000	      2.74087805141967600000	      2.01829691425354120000	     27.90214117925106800000	     -6.02595152410960910000	      6.21100851262363740000	     -9.15317818164409580000	    -13.79578049997699700000	     -0.00000000000001516898	      0.00000000000006359718	     -5.54405821787833200000	      7.97962277085228870000	      9.68247473669287120000	     -3.62150648971415870000	     12.18562472268937900000	      0.00000000000001646884	      0.00000000000007118477	     -0.31110177056010863000	     -1.17186544189346460000	     -0.69629524105430352000
      0.85899999999999999000	      1.65028567392293410000	      0.93169421299481181000	     -0.31616873512770793000	     -3.20216600405363480000	      2.73957224577453040000	      2.02762828783610030000	     27.88813772031532400000	     -6.02987113293627000000	      6.21878243417684030000	     -8.99539602553959480000	    -13.96886073527333000000	     -0.00000000000001519075	      0.00000000000006380873	     -5.55903784080752670000	      7.97846292789340160000	      9.67411136698505200000	     -3.63711706069578610000	     12.21327048968048400000	      0.00000000000001629647	      0.00000000000007204025	     -0.30188606440413640000	     -1.16705748251615480000	     -0.68834668725796644000
      0.85999999999999999000	      1.65074087723710280000	      0.93161847932112096000	     -0.31616660688060383000	     -3.20815303835073400000	      2.73821686100672410000	      2.03696358213226600000	     27.87418823600357200000	     -6.03364830158936540000	      6.22752945055588290000	     -8.83867364275022460000	    -14.14289156982062100000	     -0.00000000000001521402	      0.00000000000006401966	     -5.57373814826337010000	      7.97725655747832100000	      9.66598211215682390000	     -3.65290644352319840000	     12.24028775345567500000	      0.00000000000001612929	      0.00000000000007289111	     -0.29248773067460981000	     -1.16221758556852190000	     -0.68036603530489848000
      0.86099999999999999000	      1.65119608055127150000	      0.93154274564743011000	     -0.31616447863349972000	     -3.21414007264783310000	      2.73686147623891740000	      2.04629887642843220000	     27.86023875169182100000	     -6.03742547024245990000	      6.23627646693492550000	     -8.68195125996085610000	    -14.31692240436791500000	     -0.00000000000001523730	      0.00000000000006423060	     -5.58843845571921350000	      7.97605018706324030000	      9.65785285732859760000	     -3.66869582635061060000	     12.26730501723086600000	      0.00000000000001596211	      0.00000000000007374197	     -0.28308939694508312000	     -1.15737768862088910000	     -0.67238538335183062000
      0.86199999999999999000	      1.65165279727431960000	      0.93146622345586372000	     -0.31616135423864061000	     -3.22047992864844130000	      2.73543026172637040000	      2.05569199144972360000	     27.84644860575173900000	     -6.04098335906603530000	      6.24680191531309160000	     -8.52742664384752300000	    -14.49289780163462800000	     -0.00000000000001526620	      0.00000000000006445489	     -5.60254739167042000000	      7.97477089179493160000	      9.65027296741113010000	     -3.68489975964022020000	     12.29197616970275300000	      0.00000000000001581866	      0.00000000000007454315	     -0.27331983455220993000	     -1.15249949563215770000	     -0.66446571907988428000
      0.86299999999999999000	      1.65210951399736780000	      0.93138970126429732000	     -0.31615822984378150000	     -3.22681978464905010000	      2.73399904721382340000	      2.06508510647101450000	     27.83265845981166100000	     -6.04454124788960990000	      6.25732736369125850000	     -8.37290202773418990000	    -14.66887319890133900000	     -0.00000000000001529511	      0.00000000000006467917	     -5.61665632762162660000	      7.97349159652662290000	      9.64269307749366260000	     -3.70110369292983020000	     12.31664732217464200000	      0.00000000000001567522	      0.00000000000007534432	     -0.26355027215933674000	     -1.14762130264342650000	     -0.65654605480793793000
      0.86399999999999999000	      1.65256686544184350000	      0.93131286379863576000	     -0.31615469887266018000	     -3.23330380702865170000	      2.73253871335658970000	      2.07451490611490690000	     27.81894138684720400000	     -6.04802064476791920000	      6.26854846761714060000	     -8.21933927775135410000	    -14.84562466063953900000	     -0.00000000000001532346	      0.00000000000006490787	     -5.63051321798257480000	      7.97218273501241100000	      9.63536479656771410000	     -3.71750946953909620000	     12.33993401231089300000	      0.00000000000001553625	      0.00000000000007615184	     -0.25363238422668938000	     -1.14272904060142210000	     -0.64869171617759702000
      0.86499999999999999000	      1.65302485160774680000	      0.93123571105887903000	     -0.31615076132527675000	     -3.23993199578724590000	      2.73104926015466940000	      2.08398139038140020000	     27.80529738685837100000	     -6.05142154970096420000	      6.28046522709073680000	     -8.06673839389901380000	    -15.02315218684922400000	     -0.00000000000001535126	      0.00000000000006514099	     -5.64411806275326720000	      7.97084430725229790000	      9.62828812463328630000	     -3.73411708946801820000	     12.36183624011151000000	      0.00000000000001540177	      0.00000000000007696568	     -0.24356617075426823000	     -1.13782270950614460000	     -0.64090270318886133000
      0.86599999999999999000	      1.65348378373074720000	      0.93115810465279303000	     -0.31614623084383420000	     -3.24677046884054340000	      2.72951246646245020000	      2.09351512617673130000	     27.79177309678248900000	     -6.05471397102740120000	      6.29333963377061420000	     -7.91562584038840540000	    -15.20168354887195000000	     -0.00000000000001537532	      0.00000000000006537405	     -5.65733904296718390000	      7.96945661805497440000	      9.62161007065720140000	     -3.75107813376371450000	     12.38132143920198300000	      0.00000000000001525479	      0.00000000000007783642	     -0.23328668949336651000	     -1.13288890275721220000	     -0.63326161676877746000
      0.86699999999999999000	      1.65394303117277960000	      0.93108034702459730000	     -0.31614150271770525000	     -3.25367903665874230000	      2.72795989260679720000	      2.10307127914834120000	     27.77828871001093000000	     -6.05797023115163480000	      6.30653325618591950000	     -7.76500939699170890000	    -15.38054952283235700000	     -0.00000000000001539814	      0.00000000000006560709	     -5.67043206832884120000	      7.96805250837858030000	      9.61506488933389750000	     -3.76815698618166860000	     12.40000096205574000000	      0.00000000000001510365	      0.00000000000007872613	     -0.22293611896963778000	     -1.12794593745706150000	     -0.62566983920491104000
      0.86799999999999999000	      1.65440264334304100000	      0.93100238593989471000	     -0.31613655749046710000	     -3.26068897401898680000	      2.72638860256848180000	      2.11266612352423790000	     27.76488050937342700000	     -6.06119241397586790000	      6.32006561409885310000	     -7.61500450329828200000	    -15.55972918229928600000	     -0.00000000000001541970	      0.00000000000006583864	     -5.68334685399964190000	      7.96662967398699880000	      9.60870134351724660000	     -3.78540193315206250000	     12.41777000722392500000	      0.00000000000001495689	      0.00000000000007959230	     -0.21248059669444397000	     -1.12299284302291100000	     -0.61816144219928937000
      0.86899999999999999000	      1.65486334969798940000	      0.93092381448567119000	     -0.31613096095990112000	     -3.26800302000536870000	      2.72476116398217720000	      2.12237704211299550000	     27.75170086713809400000	     -6.06431236490009610000	      6.33461417850467430000	     -7.46683425871466260000	    -15.73984989828577800000	     -0.00000000000001543745	      0.00000000000006606572	     -5.69572692059787040000	      7.96515066544985210000	      9.60288270422055310000	     -3.80314516377977350000	     12.43280761933539200000	      0.00000000000001482328	      0.00000000000008038787	     -0.20171021916485476000	     -1.11800936118676190000	     -0.61090318686840228000
      0.87000000000000000000	      1.65532405605293760000	      0.93084524303144778000	     -0.31612536442933514000	     -3.27531706599175010000	      2.72313372539587250000	      2.13208796070175270000	     27.73852122490275800000	     -6.06743231582432510000	      6.34916274291049550000	     -7.31866401413104390000	    -15.91997061427227000000	     -0.00000000000001545520	      0.00000000000006629281	     -5.70810698719609900000	      7.96367165691270530000	      9.59706406492385790000	     -3.82088839440748500000	     12.44784523144686100000	      0.00000000000001468968	      0.00000000000008118344	     -0.19093984163526556000	     -1.11302587935061270000	     -0.60364493153751508000
      0.87100000000000000000	      1.65578583955875410000	      0.93076592289078230000	     -0.31611915198520418000	     -3.28301832506807450000	      2.72142783266309610000	      2.14194551514858040000	     27.72569412976739800000	     -6.07045082053549120000	      6.36460566619860830000	     -7.17243351500248140000	    -16.10075938463792900000	     -0.00000000000001547171	      0.00000000000006651605	     -5.71984159593240540000	      7.96212027070123090000	      9.59189806879335730000	     -3.83922450916492730000	     12.46127004508257000000	      0.00000000000001456997	      0.00000000000008195583	     -0.17975785697547983000	     -1.10798996328443190000	     -0.59670542268623161000
      0.87200000000000000000	      1.65624798211485990000	      0.93068635318796955000	     -0.31611273423655145000	     -3.29084865517437960000	      2.71969578854816210000	      2.15185194821476510000	     27.71298455033202400000	     -6.07343550984230340000	      6.38034670911415170000	     -7.02684959769227110000	    -16.28177083979664300000	     -0.00000000000001548781	      0.00000000000006673801	     -5.73136105204807220000	      7.96054475859831360000	      9.58694962038492090000	     -3.85775825196561330000	     12.47415725922636100000	      0.00000000000001445488	      0.00000000000008272050	     -0.16843866993896206000	     -1.10293656914157380000	     -0.58987216266148257000
      0.87300000000000000000	      1.65671046779107400000	      0.93060651045010812000	     -0.31610611561256857000	     -3.29881656645388240000	      2.71792327100743950000	      2.16180194735463220000	     27.70041335924684800000	     -6.07637308670415520000	      6.39633926838576720000	     -6.88190957452532630000	    -16.46290995663205700000	     -0.00000000000001550504	      0.00000000000006695852	     -5.74265847470745250000	      7.95893304725148540000	      9.58223079163803250000	     -3.87650047417543540000	     12.48715327974509600000	      0.00000000000001434031	      0.00000000000008347698	     -0.15697050116091835000	     -1.09784879412201740000	     -0.58314738872487071000
      0.87400000000000000000	      1.65717398282761260000	      0.93052584860710086000	     -0.31609889436259497000	     -3.30719722125297680000	      2.71602933318935150000	      2.17188264471554590000	     27.68825733321225300000	     -6.07916932623112770000	      6.41308637672560170000	     -6.73890123378817220000	    -16.64443205849757100000	     -0.00000000000001552567	      0.00000000000006717463	     -5.75328979699797480000	      7.95721273817292380000	      9.57820082187579120000	     -3.89586813461266420000	     12.50047571938865300000	      0.00000000000001422729	      0.00000000000008420886	     -0.14505538715829797000	     -1.09265787647236580000	     -0.57674807305266940000
